<svg enable-background="new 0 0 38.7 32.3" viewBox="0 0 38.7 32.3" xmlns="http://www.w3.org/2000/svg"><g fill="#68b6b3"><path d="m36.4 9.2c.1-.8.3-1.6.5-2.3-1.1-.1-1.6-.5-2.4-1.1-1-.7-2.2-1.6-4.5-1.6s-3.5.9-4.5 1.6c-.8.6-1.5 1.1-2.8 1.1-1.4 0-2-.5-2.8-1.1-1-.7-2.2-1.6-4.5-1.6s-3.4.9-4.4 1.7c-.8.6-1.5 1.1-2.8 1.1-1.4 0-2-.5-2.8-1.1s-1.6-1.2-2.9-1.5c.1 1.1.3 2.1.5 3.2.2.1.5.3.7.4 1 .7 2.2 1.6 4.5 1.6s3.5-.9 4.5-1.6c.8-.6 1.5-1.1 2.8-1.1s2 .5 2.8 1.1c1 .7 2.2 1.6 4.5 1.6s3.5-.9 4.5-1.6c.7-.6 1.3-1.1 2.7-1.1s2 .5 2.8 1.1 1.8 1.3 3.5 1.6c0-.1 0-.2.1-.4z"/><path d="m35.9 16.3c-.5-.2-.9-.5-1.4-.9-1-.7-2.2-1.6-4.5-1.6s-3.5.9-4.5 1.6c-.8.6-1.5 1.1-2.8 1.1-1.4 0-2-.5-2.8-1.1-1-.7-2.2-1.6-4.5-1.6s-3.4.9-4.4 1.6c-.8.6-1.5 1.1-2.8 1.1-1.4 0-2-.5-2.8-1.1-.7-.5-1.6-1.1-2.8-1.4 0 1 .2 2.1.4 3.1.2.1.4.3.7.5 1 .7 2.2 1.6 4.5 1.6s3.5-.9 4.5-1.6c.8-.6 1.5-1.1 2.8-1.1s2 .5 2.8 1.1c1 .7 2.2 1.6 4.5 1.6s3.5-.9 4.5-1.6c.8-.6 1.5-1.1 2.8-1.1 1.4 0 2 .5 2.8 1.1s1.7 1.2 3.1 1.5c0-1 0-1.9-.1-2.8z"/><path d="m36.9 28.4c-.2-1-.3-1.3-.5-2.4 0-.1-.7-.2-.7-.3-.4-.2-.8-.5-1.2-.8-1-.7-2.2-1.6-4.5-1.6s-3.5.9-4.5 1.6c-.8.6-1.5 1.1-2.8 1.1-1.4 0-2-.5-2.8-1.1-1-.7-2.2-1.6-4.5-1.6s-3.4.9-4.4 1.6c-.9.7-1.5 1.1-2.8 1.1-1.4 0-2-.5-2.8-1.1-.7-.5-1.6-1.1-2.8-1.4.1 1.1.3 2.1.5 3.1.2.1.4.3.7.5 1 .7 2.2 1.6 4.5 1.6s3.5-.9 4.5-1.6c.8-.6 1.5-1.1 2.8-1.1s2 .5 2.8 1.1c1 .7 2.2 1.6 4.5 1.6s3.5-.9 4.5-1.6c.6-.6 1.2-1.1 2.6-1.1s2 .5 2.8 1.1c.9.7 2.3 1.5 4.1 1.6.1 0 0-.2 0-.3z"/></g></svg>