<?xml version="1.0" encoding="utf-8"?>
<!-- Generator: Adobe Illustrator 22.0.0, SVG Export Plug-In . SVG Version: 6.00 Build 0)  -->
<svg version="1.1" id="Layer_1" xmlns="http://www.w3.org/2000/svg" xmlns:xlink="http://www.w3.org/1999/xlink" x="0px" y="0px"
	 viewBox="0 0 821 251.4" style="enable-background:new 0 0 821 251.4;" xml:space="preserve">
<style type="text/css">
	.st0{fill:#FFFFFF;}
	.st1{fill:#7E7FB5;}
	.st2{fill:#0FB6B3;}
	.st3{fill:#3839BA;}
</style>
<g>
	<g>
		<path class="st0" d="M88.2,71.4V76H65.9V46.3h21.7v4.6H71.4v7.7h14.4v4.5H71.4v8.2H88.2z"/>
		<path class="st0" d="M116.2,63v13h-5.3V63.7c0-4-2-6-5.4-6c-3.8,0-6.3,2.3-6.3,6.8V76h-5.3V53.4h5.1v2.9c1.7-2.1,4.5-3.2,7.8-3.2
			C112.2,53.1,116.2,56.2,116.2,63z"/>
		<path class="st0" d="M155.9,66.4h-17.8c0.6,3.3,3.4,5.4,7.3,5.4c2.5,0,4.5-0.8,6.2-2.5l2.8,3.3c-2,2.4-5.2,3.7-9.1,3.7
			c-7.6,0-12.5-4.9-12.5-11.6s5-11.6,11.7-11.6c6.6,0,11.5,4.6,11.5,11.7C156,65.3,156,65.9,155.9,66.4z M138.1,62.9H151
			c-0.4-3.3-2.9-5.5-6.4-5.5C141.1,57.4,138.6,59.6,138.1,62.9z"/>
		<path class="st0" d="M161.1,44.5h5.3V76h-5.3V44.5z"/>
		<path class="st0" d="M183.3,64.7c0-6.8,5.1-11.6,12.3-11.6c4.4,0,7.9,1.8,9.7,5.3l-4.1,2.4c-1.4-2.2-3.4-3.1-5.6-3.1
			c-3.9,0-6.9,2.7-6.9,7.1c0,4.4,3,7.1,6.9,7.1c2.3,0,4.3-1,5.6-3.1l4.1,2.4c-1.7,3.4-5.3,5.3-9.7,5.3
			C188.3,76.3,183.3,71.5,183.3,64.7z"/>
		<path class="st0" d="M207.6,64.7c0-6.8,5.1-11.6,12.1-11.6c7.1,0,12.1,4.8,12.1,11.6s-5.1,11.6-12.1,11.6
			C212.7,76.3,207.6,71.5,207.6,64.7z M226.4,64.7c0-4.3-2.9-7.1-6.8-7.1c-3.8,0-6.7,2.8-6.7,7.1s2.9,7.1,6.7,7.1
			C223.5,71.8,226.4,69,226.4,64.7z"/>
		<path class="st0" d="M274.8,63v13h-5.3V63.7c0-4-1.9-6-5.1-6c-3.5,0-5.9,2.3-5.9,6.8V76h-5.3V63.7c0-4-1.9-6-5.1-6
			c-3.5,0-5.9,2.3-5.9,6.8V76h-5.3V53.4h5.1v2.9c1.7-2,4.3-3.1,7.4-3.1c3.3,0,6.1,1.2,7.6,3.8c1.8-2.3,4.9-3.8,8.5-3.8
			C271,53.1,274.8,56.2,274.8,63z"/>
		<path class="st0" d="M303,66.4h-17.8c0.6,3.3,3.4,5.4,7.3,5.4c2.5,0,4.5-0.8,6.2-2.5l2.8,3.3c-2,2.4-5.2,3.7-9.1,3.7
			c-7.6,0-12.5-4.9-12.5-11.6s5-11.6,11.7-11.6c6.6,0,11.5,4.6,11.5,11.7C303.1,65.3,303.1,65.9,303,66.4z M285.2,62.9h12.9
			c-0.4-3.3-2.9-5.5-6.4-5.5C288.2,57.4,285.7,59.6,285.2,62.9z"/>
		<path class="st0" d="M321.4,53.1v5.1c-0.5-0.1-0.8-0.1-1.2-0.1c-4,0-6.6,2.4-6.6,7v11h-5.3V53.4h5.1v3.3
			C314.8,54.3,317.6,53.1,321.4,53.1z"/>
		<path class="st0" d="M323.8,64.7c0-6.8,5.1-11.6,12.3-11.6c4.4,0,7.9,1.8,9.7,5.3l-4.1,2.4c-1.4-2.2-3.4-3.1-5.6-3.1
			c-3.9,0-6.9,2.7-6.9,7.1c0,4.4,3,7.1,6.9,7.1c2.3,0,4.3-1,5.6-3.1l4.1,2.4c-1.7,3.4-5.3,5.3-9.7,5.3
			C328.9,76.3,323.8,71.5,323.8,64.7z"/>
		<path class="st0" d="M349.6,46.4c0-1.8,1.4-3.2,3.4-3.2s3.4,1.3,3.4,3.1c0,1.9-1.4,3.3-3.4,3.3C351.1,49.6,349.6,48.2,349.6,46.4z
			 M350.3,53.4h5.3V76h-5.3V53.4z"/>
		<path class="st0" d="M360.7,64.7c0-6.8,5.1-11.6,12.1-11.6c7.1,0,12.1,4.8,12.1,11.6s-5.1,11.6-12.1,11.6
			C365.8,76.3,360.7,71.5,360.7,64.7z M379.6,64.7c0-4.3-2.9-7.1-6.8-7.1c-3.8,0-6.7,2.8-6.7,7.1s2.9,7.1,6.7,7.1
			C376.7,71.8,379.6,69,379.6,64.7z"/>
		<path class="st0" d="M424.2,53.4v19.2c0,8.2-4.3,12-12.2,12c-4.2,0-8.5-1.1-11-3.2l2.4-4c2,1.7,5.2,2.7,8.4,2.7
			c5,0,7.2-2.3,7.2-6.9V72c-1.9,2-4.5,3-7.6,3c-6.5,0-11.5-4.4-11.5-11s5-10.9,11.5-10.9c3.2,0,6,1,7.9,3.3v-3H424.2z M419,64
			c0-3.8-2.9-6.4-6.9-6.4c-4,0-6.9,2.6-6.9,6.4c0,3.9,2.9,6.5,6.9,6.5C416.1,70.5,419,67.9,419,64z"/>
		<path class="st0" d="M431.2,44.5h5.3V76h-5.3V44.5z"/>
		<path class="st0" d="M441.6,64.7c0-6.8,5.1-11.6,12.1-11.6c7.1,0,12.1,4.8,12.1,11.6s-5.1,11.6-12.1,11.6
			C446.7,76.3,441.6,71.5,441.6,64.7z M460.4,64.7c0-4.3-2.9-7.1-6.8-7.1c-3.8,0-6.7,2.8-6.7,7.1s2.9,7.1,6.7,7.1
			C457.5,71.8,460.4,69,460.4,64.7z"/>
		<path class="st0" d="M495,64.7c0,7.1-4.9,11.6-11.5,11.6c-3.1,0-5.7-1.1-7.5-3.2V76h-5.1V44.5h5.3v11.6c1.8-2,4.4-3,7.3-3
			C490.1,53.1,495,57.7,495,64.7z M489.6,64.7c0-4.3-2.9-7.1-6.7-7.1s-6.8,2.8-6.8,7.1s2.9,7.1,6.8,7.1S489.6,69,489.6,64.7z"/>
		<path class="st0" d="M518.7,62.8V76h-5v-2.8c-1.3,2-3.7,3.1-7.1,3.1c-5.2,0-8.5-2.8-8.5-6.8c0-3.8,2.5-6.8,9.4-6.8h5.9v-0.3
			c0-3.1-1.9-4.9-5.7-4.9c-2.5,0-5.2,0.8-6.9,2.3l-2.1-3.9c2.4-1.9,5.9-2.8,9.6-2.8C514.9,53.1,518.7,56.2,518.7,62.8z M513.4,69
			v-2.6h-5.5c-3.6,0-4.6,1.4-4.6,3c0,1.9,1.6,3.1,4.3,3.1C510.3,72.5,512.5,71.3,513.4,69z"/>
		<path class="st0" d="M525.5,44.5h5.3V76h-5.3V44.5z"/>
		<path class="st0" d="M543,72.8c0,0.9-0.2,1.7-1,3.7l-2.2,6h-3.4l1.7-6.5c-1.2-0.5-2-1.6-2-3.1c0-2.1,1.5-3.5,3.4-3.5
			C541.5,69.3,543,70.7,543,72.8z"/>
		<path class="st0" d="M79,125.8c-1.3,1-3.2,1.5-5.1,1.5c-5,0-7.8-2.6-7.8-7.6v-10.9h-3.7v-4.2h3.7v-5.2h5.3v5.2h6.1v4.2h-6.1v10.8
			c0,2.2,1.1,3.4,3.1,3.4c1.1,0,2.2-0.3,3-0.9L79,125.8z"/>
		<path class="st0" d="M105.4,104.3V127h-5.1v-2.9c-1.7,2.1-4.4,3.2-7.3,3.2c-5.8,0-9.8-3.2-9.8-10v-13h5.3v12.2
			c0,4.1,2,6.1,5.3,6.1c3.7,0,6.2-2.3,6.2-6.8v-11.5H105.4z"/>
		<path class="st0" d="M121.5,124.8l2-4c2,1.3,5.1,2.3,7.9,2.3c3.4,0,4.8-0.9,4.8-2.5c0-4.3-14-0.3-14-9.3c0-4.3,3.9-7.1,10-7.1
			c3,0,6.5,0.7,8.5,2l-2,4c-2.2-1.3-4.3-1.7-6.5-1.7c-3.2,0-4.8,1.1-4.8,2.5c0,4.6,14,0.5,14,9.4c0,4.2-3.9,7-10.3,7
			C127.3,127.3,123.5,126.2,121.5,124.8z"/>
		<path class="st0" d="M144.1,115.7c0-6.8,5.1-11.6,12.1-11.6c7.1,0,12.1,4.8,12.1,11.6s-5.1,11.6-12.1,11.6
			C149.2,127.3,144.1,122.5,144.1,115.7z M162.9,115.7c0-4.3-2.9-7.1-6.8-7.1c-3.8,0-6.7,2.8-6.7,7.1s2.9,7.1,6.7,7.1
			C160,122.8,162.9,120,162.9,115.7z"/>
		<path class="st0" d="M173.4,95.5h5.3V127h-5.3V95.5z"/>
		<path class="st0" d="M207.6,104.3V127h-5.1v-2.9c-1.7,2.1-4.4,3.2-7.3,3.2c-5.8,0-9.8-3.2-9.8-10v-13h5.3v12.2
			c0,4.1,2,6.1,5.3,6.1c3.7,0,6.2-2.3,6.2-6.8v-11.5H207.6z"/>
		<path class="st0" d="M212.7,115.7c0-6.8,5.1-11.6,12.3-11.6c4.4,0,7.9,1.8,9.7,5.3l-4.1,2.4c-1.4-2.2-3.4-3.1-5.6-3.1
			c-3.9,0-6.9,2.7-6.9,7.1c0,4.4,3,7.1,6.9,7.1c2.3,0,4.3-1,5.6-3.1l4.1,2.4c-1.7,3.4-5.3,5.3-9.7,5.3
			C217.8,127.3,212.7,122.5,212.7,115.7z"/>
		<path class="st0" d="M238.5,97.4c0-1.8,1.4-3.2,3.4-3.2s3.4,1.3,3.4,3.1c0,1.9-1.4,3.3-3.4,3.3C240,100.6,238.5,99.2,238.5,97.4z
			 M239.2,104.3h5.3V127h-5.3V104.3z"/>
		<path class="st0" d="M249.6,115.7c0-6.8,5.1-11.6,12.1-11.6c7.1,0,12.1,4.8,12.1,11.6s-5.1,11.6-12.1,11.6
			C254.7,127.3,249.6,122.5,249.6,115.7z M268.5,115.7c0-4.3-2.9-7.1-6.8-7.1c-3.8,0-6.7,2.8-6.7,7.1s2.9,7.1,6.7,7.1
			C265.6,122.8,268.5,120,268.5,115.7z M263.8,95.4h6.2l-7.4,5.8h-4.6L263.8,95.4z"/>
		<path class="st0" d="M301.3,114v13H296v-12.3c0-4-2-6-5.4-6c-3.8,0-6.3,2.3-6.3,6.8V127h-5.3v-22.7h5.1v2.9
			c1.7-2.1,4.5-3.2,7.8-3.2C297.2,104.1,301.3,107.2,301.3,114z"/>
		<path class="st0" d="M341,117.4h-17.8c0.6,3.3,3.4,5.4,7.3,5.4c2.5,0,4.5-0.8,6.2-2.5l2.8,3.3c-2,2.4-5.2,3.7-9.1,3.7
			c-7.6,0-12.5-4.9-12.5-11.6s5-11.6,11.7-11.6c6.6,0,11.5,4.6,11.5,11.7C341.1,116.2,341,116.9,341,117.4z M323.1,113.9H336
			c-0.4-3.3-2.9-5.5-6.4-5.5C326.2,108.3,323.7,110.5,323.1,113.9z"/>
		<path class="st0" d="M343.6,124.8l2-4c2,1.3,5.1,2.3,7.9,2.3c3.4,0,4.8-0.9,4.8-2.5c0-4.3-14-0.3-14-9.3c0-4.3,3.9-7.1,10-7.1
			c3,0,6.5,0.7,8.5,2l-2,4c-2.2-1.3-4.3-1.7-6.5-1.7c-3.2,0-4.8,1.1-4.8,2.5c0,4.6,14,0.5,14,9.4c0,4.2-3.9,7-10.3,7
			C349.4,127.3,345.6,126.2,343.6,124.8z"/>
	</g>
</g>
<g>
	<g>
		<path class="st0" d="M424.9,205.2v3.1h-15.1v-20.1h14.7v3.1h-10.9v5.2h9.7v3.1h-9.7v5.5H424.9z"/>
		<path class="st0" d="M438.2,208.4l-3.9-5.3l-4,5.3h-4l6-7.8l-5.7-7.6h4l3.8,5l3.8-5h3.9l-5.7,7.5l6,7.8H438.2z"/>
		<path class="st0" d="M461.2,200.7c0,4.8-3.3,7.9-7.8,7.9c-2,0-3.7-0.7-4.9-2.1v7.4h-3.6V193h3.4v2c1.2-1.5,3-2.2,5.1-2.2
			C457.9,192.9,461.2,196,461.2,200.7z M457.6,200.7c0-2.9-2-4.8-4.5-4.8c-2.6,0-4.6,1.9-4.6,4.8s2,4.8,4.6,4.8
			C455.6,205.5,457.6,203.6,457.6,200.7z"/>
		<path class="st0" d="M479,201.8h-12c0.4,2.2,2.3,3.7,5,3.7c1.7,0,3.1-0.5,4.2-1.7l1.9,2.2c-1.4,1.6-3.5,2.5-6.2,2.5
			c-5.1,0-8.5-3.3-8.5-7.9c0-4.6,3.4-7.8,7.9-7.8c4.5,0,7.8,3.1,7.8,7.9C479,201.1,479,201.5,479,201.8z M466.9,199.5h8.7
			c-0.3-2.2-2-3.7-4.3-3.7C469,195.7,467.3,197.2,466.9,199.5z"/>
		<path class="st0" d="M491.4,192.9v3.4c-0.3-0.1-0.6-0.1-0.8-0.1c-2.7,0-4.5,1.6-4.5,4.7v7.4h-3.6V193h3.4v2.2
			C487,193.7,488.8,192.9,491.4,192.9z"/>
		<path class="st0" d="M504.2,207.5c-0.9,0.7-2.2,1-3.4,1c-3.4,0-5.3-1.8-5.3-5.2V196H493v-2.9h2.5v-3.5h3.6v3.5h4.1v2.9h-4.1v7.3
			c0,1.5,0.7,2.3,2.1,2.3c0.7,0,1.5-0.2,2-0.6L504.2,207.5z"/>
		<path class="st0" d="M505.4,200.7c0-4.6,3.4-7.8,8.2-7.8c4.8,0,8.2,3.2,8.2,7.8s-3.4,7.9-8.2,7.9
			C508.8,208.6,505.4,205.3,505.4,200.7z M518.1,200.7c0-2.9-2-4.8-4.6-4.8c-2.6,0-4.5,1.9-4.5,4.8s2,4.8,4.5,4.8
			C516.2,205.5,518.1,203.6,518.1,200.7z"/>
		<path class="st0" d="M523.4,206.8l1.4-2.7c1.3,0.9,3.4,1.5,5.3,1.5c2.3,0,3.2-0.6,3.2-1.7c0-2.9-9.5-0.2-9.5-6.3
			c0-2.9,2.6-4.8,6.7-4.8c2,0,4.4,0.5,5.7,1.3l-1.4,2.7c-1.5-0.9-2.9-1.1-4.4-1.1c-2.2,0-3.2,0.7-3.2,1.7c0,3.1,9.5,0.3,9.5,6.3
			c0,2.9-2.6,4.7-7,4.7C527.4,208.6,524.8,207.8,523.4,206.8z"/>
		<path class="st0" d="M562.3,201.8h-12c0.4,2.2,2.3,3.7,5,3.7c1.7,0,3.1-0.5,4.2-1.7l1.9,2.2c-1.4,1.6-3.5,2.5-6.2,2.5
			c-5.1,0-8.5-3.3-8.5-7.9c0-4.6,3.4-7.8,7.9-7.8c4.5,0,7.8,3.1,7.8,7.9C562.3,201.1,562.3,201.5,562.3,201.8z M550.2,199.5h8.7
			c-0.3-2.2-2-3.7-4.3-3.7C552.2,195.7,550.5,197.2,550.2,199.5z"/>
		<path class="st0" d="M580.9,199.6v8.8h-3.6V200c0-2.7-1.3-4-3.6-4c-2.6,0-4.3,1.6-4.3,4.6v7.8h-3.6V193h3.4v2
			c1.2-1.4,3-2.2,5.3-2.2C578.1,192.9,580.9,195,580.9,199.6z"/>
		<path class="st0" d="M591.6,206.8l1.4-2.7c1.3,0.9,3.4,1.5,5.3,1.5c2.3,0,3.2-0.6,3.2-1.7c0-2.9-9.5-0.2-9.5-6.3
			c0-2.9,2.6-4.8,6.7-4.8c2,0,4.4,0.5,5.7,1.3l-1.4,2.7c-1.5-0.9-2.9-1.1-4.4-1.1c-2.2,0-3.2,0.7-3.2,1.7c0,3.1,9.5,0.3,9.5,6.3
			c0,2.9-2.6,4.7-7,4.7C595.6,208.6,593,207.8,591.6,206.8z"/>
		<path class="st0" d="M622.5,201.8h-12c0.4,2.2,2.3,3.7,5,3.7c1.7,0,3.1-0.5,4.2-1.7l1.9,2.2c-1.4,1.6-3.5,2.5-6.2,2.5
			c-5.1,0-8.5-3.3-8.5-7.9c0-4.6,3.4-7.8,7.9-7.8c4.5,0,7.8,3.1,7.8,7.9C622.6,201.1,622.5,201.5,622.5,201.8z M610.5,199.5h8.7
			c-0.3-2.2-2-3.7-4.3-3.7C612.5,195.7,610.8,197.2,610.5,199.5z"/>
		<path class="st0" d="M634.9,192.9v3.4c-0.3-0.1-0.6-0.1-0.8-0.1c-2.7,0-4.5,1.6-4.5,4.7v7.4H626V193h3.4v2.2
			C630.5,193.7,632.3,192.9,634.9,192.9z"/>
		<path class="st0" d="M652.9,193l-6.6,15.3h-3.7L636,193h3.7l4.8,11.4l4.9-11.4H652.9z"/>
		<path class="st0" d="M654.6,188.3c0-1.2,1-2.2,2.3-2.2c1.3,0,2.3,0.9,2.3,2.1c0,1.3-0.9,2.2-2.3,2.2
			C655.6,190.5,654.6,189.6,654.6,188.3z M655.1,193h3.6v15.3h-3.6V193z"/>
		<path class="st0" d="M662.2,200.7c0-4.6,3.4-7.8,8.3-7.8c3,0,5.4,1.2,6.5,3.6l-2.8,1.6c-0.9-1.5-2.3-2.1-3.8-2.1
			c-2.6,0-4.7,1.8-4.7,4.8c0,3,2,4.8,4.7,4.8c1.5,0,2.9-0.7,3.8-2.1l2.8,1.6c-1.2,2.3-3.6,3.6-6.5,3.6
			C665.6,208.6,662.2,205.3,662.2,200.7z"/>
		<path class="st0" d="M679.6,188.3c0-1.2,1-2.2,2.3-2.2c1.3,0,2.3,0.9,2.3,2.1c0,1.3-0.9,2.2-2.3,2.2
			C680.6,190.5,679.6,189.6,679.6,188.3z M680.1,193h3.6v15.3h-3.6V193z"/>
		<path class="st0" d="M687.2,200.7c0-4.6,3.4-7.8,8.2-7.8c4.8,0,8.2,3.2,8.2,7.8s-3.4,7.9-8.2,7.9
			C690.6,208.6,687.2,205.3,687.2,200.7z M699.9,200.7c0-2.9-2-4.8-4.6-4.8c-2.6,0-4.5,1.9-4.5,4.8s2,4.8,4.5,4.8
			C697.9,205.5,699.9,203.6,699.9,200.7z"/>
		<path class="st0" d="M705.2,206.8l1.4-2.7c1.3,0.9,3.4,1.5,5.3,1.5c2.3,0,3.2-0.6,3.2-1.7c0-2.9-9.5-0.2-9.5-6.3
			c0-2.9,2.6-4.8,6.7-4.8c2,0,4.4,0.5,5.7,1.3l-1.4,2.7c-1.5-0.9-2.9-1.1-4.4-1.1c-2.2,0-3.2,0.7-3.2,1.7c0,3.1,9.5,0.3,9.5,6.3
			c0,2.9-2.6,4.7-6.9,4.7C709.1,208.6,706.6,207.8,705.2,206.8z"/>
		<path class="st0" d="M744.7,187.1v21.3h-3.4v-2c-1.2,1.5-3,2.2-5.1,2.2c-4.5,0-7.8-3.1-7.8-7.9s3.3-7.8,7.8-7.8
			c2,0,3.7,0.7,4.9,2.1v-7.9H744.7z M741.1,200.7c0-2.9-2-4.8-4.6-4.8c-2.6,0-4.6,1.9-4.6,4.8s2,4.8,4.6,4.8
			C739.2,205.5,741.1,203.6,741.1,200.7z"/>
		<path class="st0" d="M763.8,201.8h-12c0.4,2.2,2.3,3.7,5,3.7c1.7,0,3.1-0.5,4.2-1.7l1.9,2.2c-1.4,1.6-3.5,2.5-6.2,2.5
			c-5.1,0-8.5-3.3-8.5-7.9c0-4.6,3.4-7.8,7.9-7.8c4.5,0,7.8,3.1,7.8,7.9C763.8,201.1,763.8,201.5,763.8,201.8z M751.7,199.5h8.7
			c-0.3-2.2-2-3.7-4.3-3.7C753.7,195.7,752,197.2,751.7,199.5z"/>
		<path class="st0" d="M460.7,235.2c0-4.6,3.4-7.8,8.3-7.8c3,0,5.4,1.2,6.5,3.6l-2.8,1.6c-0.9-1.5-2.3-2.1-3.8-2.1
			c-2.6,0-4.7,1.8-4.7,4.8c0,3,2,4.8,4.7,4.8c1.5,0,2.9-0.7,3.8-2.1l2.8,1.6c-1.2,2.3-3.6,3.6-6.5,3.6
			C464.2,243,460.7,239.8,460.7,235.2z"/>
		<path class="st0" d="M477.2,235.2c0-4.6,3.4-7.8,8.2-7.8c4.8,0,8.2,3.2,8.2,7.8s-3.4,7.9-8.2,7.9
			C480.6,243,477.2,239.8,477.2,235.2z M489.9,235.2c0-2.9-2-4.8-4.6-4.8c-2.6,0-4.5,1.9-4.5,4.8c0,2.9,2,4.8,4.5,4.8
			C488,240,489.9,238.1,489.9,235.2z"/>
		<path class="st0" d="M522.6,234v8.8H519v-8.3c0-2.7-1.3-4-3.4-4c-2.4,0-4,1.6-4,4.6v7.8H508v-8.3c0-2.7-1.3-4-3.4-4
			c-2.4,0-4,1.6-4,4.6v7.8H497v-15.3h3.4v2c1.1-1.4,2.9-2.1,5-2.1c2.2,0,4.1,0.8,5.2,2.6c1.2-1.6,3.3-2.6,5.7-2.6
			C520,227.3,522.6,229.4,522.6,234z"/>
		<path class="st0" d="M541.7,236.3h-12c0.4,2.2,2.3,3.7,5,3.7c1.7,0,3.1-0.5,4.2-1.7l1.9,2.2c-1.4,1.6-3.5,2.5-6.2,2.5
			c-5.1,0-8.5-3.3-8.5-7.9c0-4.6,3.4-7.8,7.9-7.8c4.5,0,7.8,3.1,7.8,7.9C541.8,235.5,541.8,236,541.7,236.3z M529.7,233.9h8.7
			c-0.3-2.2-2-3.7-4.3-3.7C531.7,230.2,530,231.7,529.7,233.9z"/>
		<path class="st0" d="M554.1,227.3v3.4c-0.3-0.1-0.6-0.1-0.8-0.1c-2.7,0-4.5,1.6-4.5,4.7v7.4h-3.6v-15.3h3.4v2.2
			C549.7,228.1,551.6,227.3,554.1,227.3z"/>
		<path class="st0" d="M555.8,235.2c0-4.6,3.4-7.8,8.3-7.8c3,0,5.4,1.2,6.5,3.6l-2.8,1.6c-0.9-1.5-2.3-2.1-3.8-2.1
			c-2.6,0-4.7,1.8-4.7,4.8c0,3,2,4.8,4.7,4.8c1.5,0,2.9-0.7,3.8-2.1l2.8,1.6c-1.2,2.3-3.6,3.6-6.5,3.6
			C559.2,243,555.8,239.8,555.8,235.2z"/>
		<path class="st0" d="M573.2,222.8c0-1.2,1-2.2,2.3-2.2c1.3,0,2.3,0.9,2.3,2.1c0,1.3-0.9,2.2-2.3,2.2
			C574.2,225,573.2,224,573.2,222.8z M573.7,227.5h3.6v15.3h-3.6V227.5z"/>
		<path class="st0" d="M580.7,235.2c0-4.6,3.4-7.8,8.2-7.8c4.8,0,8.2,3.2,8.2,7.8s-3.4,7.9-8.2,7.9
			C584.2,243,580.7,239.8,580.7,235.2z M593.5,235.2c0-2.9-2-4.8-4.6-4.8c-2.6,0-4.5,1.9-4.5,4.8c0,2.9,2,4.8,4.5,4.8
			C591.5,240,593.5,238.1,593.5,235.2z"/>
		<path class="st0" d="M622.8,236.3h-12c0.4,2.2,2.3,3.7,5,3.7c1.7,0,3.1-0.5,4.2-1.7l1.9,2.2c-1.4,1.6-3.5,2.5-6.2,2.5
			c-5.1,0-8.5-3.3-8.5-7.9c0-4.6,3.4-7.8,7.9-7.8c4.5,0,7.8,3.1,7.8,7.9C622.9,235.5,622.8,236,622.8,236.3z M610.8,233.9h8.7
			c-0.3-2.2-2-3.7-4.3-3.7C612.8,230.2,611.1,231.7,610.8,233.9z"/>
		<path class="st0" d="M635.7,242.8l-3.9-5.3l-4,5.3h-4l6-7.8l-5.7-7.6h4l3.8,5l3.8-5h3.9l-5.7,7.5l6,7.8H635.7z"/>
		<path class="st0" d="M651.6,242c-0.9,0.7-2.2,1-3.4,1c-3.4,0-5.3-1.8-5.3-5.2v-7.4h-2.5v-2.9h2.5v-3.5h3.6v3.5h4.1v2.9h-4.1v7.3
			c0,1.5,0.7,2.3,2.1,2.3c0.7,0,1.5-0.2,2-0.6L651.6,242z"/>
		<path class="st0" d="M668.4,236.3h-12c0.4,2.2,2.3,3.7,5,3.7c1.7,0,3.1-0.5,4.2-1.7l1.9,2.2c-1.4,1.6-3.5,2.5-6.2,2.5
			c-5.1,0-8.5-3.3-8.5-7.9c0-4.6,3.4-7.8,7.9-7.8c4.5,0,7.8,3.1,7.8,7.9C668.4,235.5,668.4,236,668.4,236.3z M656.3,233.9h8.7
			c-0.3-2.2-2-3.7-4.3-3.7C658.4,230.2,656.7,231.7,656.3,233.9z"/>
		<path class="st0" d="M680.8,227.3v3.4c-0.3-0.1-0.6-0.1-0.8-0.1c-2.7,0-4.5,1.6-4.5,4.7v7.4h-3.6v-15.3h3.4v2.2
			C676.3,228.1,678.2,227.3,680.8,227.3z"/>
		<path class="st0" d="M683.3,222.8c0-1.2,1-2.2,2.3-2.2c1.3,0,2.3,0.9,2.3,2.1c0,1.3-0.9,2.2-2.3,2.2
			C684.3,225,683.3,224,683.3,222.8z M683.8,227.5h3.6v15.3h-3.6V227.5z"/>
		<path class="st0" d="M690.8,235.2c0-4.6,3.4-7.8,8.2-7.8c4.8,0,8.2,3.2,8.2,7.8s-3.4,7.9-8.2,7.9
			C694.3,243,690.8,239.8,690.8,235.2z M703.6,235.2c0-2.9-2-4.8-4.6-4.8c-2.6,0-4.5,1.9-4.5,4.8c0,2.9,2,4.8,4.5,4.8
			C701.6,240,703.6,238.1,703.6,235.2z"/>
		<path class="st0" d="M719.5,227.3v3.4c-0.3-0.1-0.6-0.1-0.8-0.1c-2.7,0-4.5,1.6-4.5,4.7v7.4h-3.6v-15.3h3.4v2.2
			C715.1,228.1,716.9,227.3,719.5,227.3z"/>
	</g>
</g>
<polygon class="st1" points="377.1,168 14.8,168 14.8,10.4 588.2,10.4 588.2,75.6 582.7,75.6 582.7,15.9 20.2,15.9 20.2,162.6 
	377.1,162.6 "/>
<g>
	<g>
		<path class="st2" d="M48.3,53.7c0.2-0.9,0.3-1.8,0.6-2.7c-1.2-0.1-1.9-0.6-2.7-1.2C45,49,43.7,48,41.1,48c-2.6,0-4,1-5.1,1.9
			c-1,0.7-1.7,1.2-3.2,1.2c-1.6,0-2.3-0.5-3.2-1.2C28.3,49,27,48,24.4,48s-4,1-5.1,1.9c-1,0.7-1.7,1.2-3.2,1.2
			c-1.6,0-2.3-0.5-3.2-1.2c-0.8-0.6-1.8-1.3-3.2-1.7c0.2,1.2,0.4,2.4,0.6,3.6c0.3,0.2,0.5,0.3,0.8,0.5c1.1,0.8,2.5,1.9,5.1,1.9
			c2.6,0,4-1,5.1-1.9c1-0.7,1.7-1.2,3.2-1.2s2.3,0.5,3.2,1.2c1.1,0.8,2.5,1.9,5.1,1.9c2.6,0,4-1,5.1-1.9c1-0.7,1.7-1.2,3.2-1.2
			c1.6,0,2.3,0.5,3.2,1.2c0.9,0.7,2.1,1.5,4,1.8C48.3,54,48.3,53.8,48.3,53.7z"/>
		<path class="st2" d="M47.8,61.7c-0.6-0.2-1.1-0.6-1.6-1c-1.1-0.8-2.5-1.9-5.1-1.9c-2.6,0-4,1-5.1,1.9c-1,0.7-1.7,1.2-3.2,1.2
			c-1.6,0-2.3-0.5-3.2-1.2c-1.1-0.8-2.5-1.9-5.1-1.9s-4,1-5.1,1.9c-1,0.7-1.7,1.2-3.2,1.2c-1.6,0-2.3-0.5-3.2-1.2
			c-0.8-0.6-1.8-1.3-3.2-1.7c0.2,1.2,0.4,2.4,0.6,3.6c0.3,0.2,0.5,0.3,0.8,0.5c1.1,0.8,2.5,1.9,5.1,1.9c2.6,0,4-1,5.1-1.9
			c1-0.7,1.7-1.2,3.2-1.2s2.3,0.5,3.2,1.2c1.1,0.8,2.5,1.9,5.1,1.9c2.6,0,4-1,5.1-1.9c1-0.7,1.7-1.2,3.2-1.2c1.6,0,2.3,0.5,3.2,1.2
			c0.9,0.6,1.9,1.4,3.6,1.7C47.9,63.9,47.9,62.8,47.8,61.7z"/>
		<path class="st2" d="M48.9,75.6c-0.3-1.1-0.4-1.5-0.6-2.7c0-0.1-0.8-0.2-0.8-0.3c-0.5-0.2-0.9-0.5-1.4-0.9
			c-1.1-0.8-2.5-1.9-5.1-1.9c-2.6,0-4,1-5.1,1.9c-1,0.7-1.7,1.2-3.2,1.2c-1.6,0-2.3-0.5-3.2-1.2c-1.1-0.8-2.5-1.9-5.1-1.9
			s-4,1-5.1,1.9c-1,0.7-1.7,1.2-3.2,1.2c-1.6,0-2.3-0.5-3.2-1.2C12,71.1,11,70.4,9.5,70c0.2,1.2,0.4,2.4,0.6,3.6
			c0.3,0.2,0.5,0.3,0.8,0.5C12,75,13.4,76,16,76c2.6,0,4-1,5.1-1.9c1-0.7,1.7-1.2,3.2-1.2s2.3,0.5,3.2,1.2c1.1,0.8,2.5,1.9,5.1,1.9
			c2.6,0,4-1,5.1-1.9c1-0.7,1.7-1.2,3.2-1.2c1.6,0,2.3,0.5,3.2,1.2c1,0.7,2.6,1.7,4.7,1.9C49,75.9,49,75.7,48.9,75.6z"/>
	</g>
</g>
<g>
	<path class="st3" d="M814.3,128.7c0.2-0.9,0.3-1.8,0.6-2.7c-1.2-0.1-1.9-0.6-2.7-1.2c-1.1-0.8-2.5-1.9-5.1-1.9c-2.6,0-4,1-5.1,1.9
		c-1,0.7-1.7,1.2-3.2,1.2c-1.6,0-2.3-0.5-3.2-1.2c-1.1-0.8-2.5-1.9-5.1-1.9c-2.6,0-4,1-5.1,1.9c-1,0.7-1.7,1.2-3.2,1.2
		c-1.6,0-2.3-0.5-3.2-1.2c-0.8-0.6-1.8-1.3-3.2-1.7c0.2,1.2,0.4,2.4,0.6,3.6c0.3,0.2,0.5,0.3,0.8,0.5c1.1,0.8,2.5,1.9,5.1,1.9
		c2.6,0,4-1,5.1-1.9c1-0.7,1.7-1.2,3.2-1.2s2.3,0.5,3.2,1.2c1.1,0.8,2.5,1.9,5.1,1.9c2.6,0,4-1,5.1-1.9c1-0.7,1.7-1.2,3.2-1.2
		c1.6,0,2.3,0.5,3.2,1.2c0.9,0.7,2.1,1.5,4,1.8C814.3,129,814.3,128.8,814.3,128.7z"/>
	<path class="st3" d="M813.8,136.7c-0.6-0.2-1.1-0.6-1.6-1c-1.1-0.8-2.5-1.9-5.1-1.9c-2.6,0-4,1-5.1,1.9c-1,0.7-1.7,1.2-3.2,1.2
		c-1.6,0-2.3-0.5-3.2-1.2c-1.1-0.8-2.5-1.9-5.1-1.9c-2.6,0-4,1-5.1,1.9c-1,0.7-1.7,1.2-3.2,1.2c-1.6,0-2.3-0.5-3.2-1.2
		c-0.8-0.6-1.8-1.3-3.2-1.7c0.2,1.2,0.4,2.4,0.6,3.6c0.3,0.2,0.5,0.3,0.8,0.5c1.1,0.8,2.5,1.9,5.1,1.9c2.6,0,4-1,5.1-1.9
		c1-0.7,1.7-1.2,3.2-1.2s2.3,0.5,3.2,1.2c1.1,0.8,2.5,1.9,5.1,1.9c2.6,0,4-1,5.1-1.9c1-0.7,1.7-1.2,3.2-1.2c1.6,0,2.3,0.5,3.2,1.2
		c0.9,0.6,1.9,1.4,3.6,1.7C813.9,138.9,813.9,137.8,813.8,136.7z"/>
	<path class="st3" d="M814.9,150.6c-0.3-1.1-0.4-1.5-0.6-2.7c0-0.1-0.8-0.2-0.8-0.3c-0.5-0.2-0.9-0.5-1.4-0.9
		c-1.1-0.8-2.5-1.9-5.1-1.9c-2.6,0-4,1-5.1,1.9c-1,0.7-1.7,1.2-3.2,1.2c-1.6,0-2.3-0.5-3.2-1.2c-1.1-0.8-2.5-1.9-5.1-1.9
		c-2.6,0-4,1-5.1,1.9c-1,0.7-1.7,1.2-3.2,1.2c-1.6,0-2.3-0.5-3.2-1.2c-0.8-0.6-1.8-1.3-3.2-1.7c0.2,1.2,0.4,2.4,0.6,3.6
		c0.3,0.2,0.5,0.3,0.8,0.5c1.1,0.8,2.5,1.9,5.1,1.9c2.6,0,4-1,5.1-1.9c1-0.7,1.7-1.2,3.2-1.2s2.3,0.5,3.2,1.2
		c1.1,0.8,2.5,1.9,5.1,1.9c2.6,0,4-1,5.1-1.9c1-0.7,1.7-1.2,3.2-1.2c1.6,0,2.3,0.5,3.2,1.2c1,0.7,2.6,1.7,4.7,1.9
		C815,150.9,815,150.7,814.9,150.6z"/>
</g>
<g>
	<path class="st0" d="M398.5,108.8h13.2V155h28.5v10.7h-41.7V108.8z"/>
	<path class="st0" d="M443,137.2c0-16.9,13.2-29.4,31.1-29.4c17.9,0,31.1,12.4,31.1,29.4c0,17-13.2,29.4-31.1,29.4
		C456.2,166.7,443,154.1,443,137.2z M491.9,137.2c0-10.8-7.6-18.2-17.8-18.2c-10.2,0-17.8,7.4-17.8,18.2c0,10.8,7.6,18.2,17.8,18.2
		C484.3,155.4,491.9,148.1,491.9,137.2z"/>
	<path class="st0" d="M553.6,136.4h12v23.1c-6.3,4.7-14.9,7.2-23,7.2c-17.9,0-31-12.3-31-29.4c0-17.1,13.2-29.4,31.3-29.4
		c10,0,18.3,3.4,23.8,9.8l-8.4,7.8c-4.1-4.4-8.9-6.4-14.7-6.4c-11,0-18.6,7.4-18.6,18.2c0,10.6,7.6,18.2,18.4,18.2
		c3.6,0,6.9-0.7,10.2-2.4V136.4z"/>
	<path class="st0" d="M577.8,108.8h13.2v56.9h-13.2V108.8z"/>
	<path class="st0" d="M656.6,108.8v56.9h-10.8l-28.4-34.5v34.5h-13v-56.9h10.9l28.3,34.5v-34.5H656.6z"/>
	<path class="st0" d="M666.5,137.2c0-17.1,13.2-29.4,30.9-29.4c9.8,0,18,3.6,23.4,10.1l-8.4,7.8c-3.8-4.4-8.6-6.7-14.3-6.7
		c-10.6,0-18.2,7.5-18.2,18.2c0,10.7,7.6,18.2,18.2,18.2c5.7,0,10.5-2.3,14.3-6.7l8.4,7.8c-5.4,6.6-13.6,10.2-23.5,10.2
		C679.7,166.7,666.5,154.4,666.5,137.2z"/>
	<path class="st0" d="M724.8,137.2c0-16.9,13.2-29.4,31.1-29.4c17.9,0,31.1,12.4,31.1,29.4c0,17-13.2,29.4-31.1,29.4
		C738,166.7,724.8,154.1,724.8,137.2z M773.7,137.2c0-10.8-7.6-18.2-17.8-18.2c-10.2,0-17.8,7.4-17.8,18.2
		c0,10.8,7.6,18.2,17.8,18.2C766.1,155.4,773.7,148.1,773.7,137.2z"/>
</g>
</svg>
